<?xml version="1.0" encoding="utf-8"?>
<!-- Generator: Adobe Illustrator 16.0.0, SVG Export Plug-In . SVG Version: 6.00 Build 0)  -->
<!DOCTYPE svg PUBLIC "-//W3C//DTD SVG 1.1//EN" "http://www.w3.org/Graphics/SVG/1.1/DTD/svg11.dtd">
<svg version="1.1" id="Layer_1" xmlns="http://www.w3.org/2000/svg" xmlns:xlink="http://www.w3.org/1999/xlink" x="0px" y="0px"
	 width="819.999px" height="229.539px" viewBox="0 0 819.999 229.539" enable-background="new 0 0 819.999 229.539"
	 xml:space="preserve">
<g>
	<polygon fill="#FFFFFF" stroke="#539BAB" stroke-width="7" stroke-miterlimit="10" points="156.255,57.174 156.255,42.025 
		112.322,42.025 112.322,57.174 125.577,57.174 125.577,105.462 67.252,105.462 67.252,57.174 80.508,57.174 80.508,42.025 
		36.576,42.025 36.576,57.174 49.832,57.174 49.832,168.9 36.576,168.9 36.576,184.049 80.508,184.049 80.508,168.9 67.252,168.9 
		67.252,120.612 125.577,120.612 125.577,168.9 112.322,168.9 112.322,184.049 156.255,184.049 156.255,168.9 143,168.9 143,57.174 
			"/>
	<polygon fill="#FFFFFF" stroke="#539BAB" stroke-width="7" stroke-miterlimit="10" points="256.239,57.174 269.494,57.174 
		269.494,157.728 259.646,167.763 223.098,167.763 213.442,157.728 213.442,57.174 226.697,57.174 226.697,42.025 184.658,42.025 
		184.658,57.174 196.02,57.174 196.02,163.219 215.713,184.049 267.221,184.049 286.915,163.219 286.915,57.174 298.278,57.174 
		298.278,42.025 256.239,42.025 	"/>
	<path fill="#FFFFFF" stroke="#539BAB" stroke-width="7" stroke-miterlimit="10" d="M326.681,42.025v15.149h13.256V168.9h-13.256
		v15.149h80.669l19.694-20.83V62.855l-19.694-20.83H326.681z M409.623,157.728l-9.849,10.035h-42.417V58.311h42.607l9.659,10.036
		V157.728z"/>
	<path fill="#FFFFFF" stroke="#539BAB" stroke-width="7" stroke-miterlimit="10" d="M457.339,42.025v15.149h13.255V168.9h-13.255
		v15.149h80.669l19.695-20.83V62.855l-19.695-20.83H457.339z M540.28,157.728l-9.846,10.035h-42.418V58.311h42.607l9.656,10.036
		V157.728z"/>
	<polygon fill="#FFFFFF" stroke="#539BAB" stroke-width="7" stroke-miterlimit="10" points="659.958,168.9 618.676,168.9 
		618.676,57.174 633.825,57.174 633.825,42.025 587.998,42.025 587.998,57.174 601.254,57.174 601.254,168.9 587.998,168.9 
		587.998,184.049 674.349,184.049 674.349,146.936 659.958,146.936 	"/>
	<polygon fill="#FFFFFF" stroke="#539BAB" stroke-width="7" stroke-miterlimit="10" points="783.423,79.141 783.423,42.025 
		693.287,42.025 693.287,57.174 706.542,57.174 706.542,168.9 693.287,168.9 693.287,184.049 783.423,184.049 783.423,146.936 
		768.273,146.936 768.273,168.9 723.965,168.9 723.965,120.612 768.273,120.612 768.273,105.462 723.965,105.462 723.965,57.174 
		768.273,57.174 768.273,79.141 	"/>
</g>
</svg>
